<svg width="83" height="89" viewBox="0 0 83 89" fill="none" xmlns="http://www.w3.org/2000/svg">
    <path d="M75.8739 34.0998L18.2965 1.61573C16.4162 0.541165 14.2848 -0.0161912 12.1191 0.000358086C9.95346 0.0169074 7.83082 0.606773 5.96713 1.70995C4.15142 2.7484 2.64293 4.24893 1.59488 6.05911C0.546834 7.86929 -0.00342054 9.92462 1.59986e-05 12.0163V76.9845C-0.00342054 79.0762 0.546834 81.1315 1.59488 82.9417C2.64293 84.7519 4.15142 86.2524 5.96713 87.2909C7.831 88.3935 9.95358 88.9831 12.1191 88.9996C14.2847 89.0162 16.416 88.4591 18.2965 87.3851L75.8739 54.901C77.7309 53.8723 79.2785 52.3653 80.3562 50.5363C81.4339 48.7074 82.0022 46.6232 82.0022 44.5004C82.0022 42.3776 81.4339 40.2935 80.3562 38.4645C79.2785 36.6356 77.7309 35.1285 75.8739 34.0998V34.0998Z"
          fill="#CACEAC"/>
</svg>
