<svg width="80" height="90" viewBox="0 0 80 90" fill="none" xmlns="http://www.w3.org/2000/svg">
    <path d="M21.1765 0H11.7647C5.26724 0 0 5.26724 0 11.7647V77.6471C0 84.1445 5.26724 89.4118 11.7647 89.4118H21.1765C27.6739 89.4118 32.9412 84.1445 32.9412 77.6471V11.7647C32.9412 5.26724 27.6739 0 21.1765 0Z"
          fill="#CACEAC"/>
    <path d="M68.2353 0H58.8235C52.3261 0 47.0588 5.26724 47.0588 11.7647V77.6471C47.0588 84.1445 52.3261 89.4118 58.8235 89.4118H68.2353C74.7328 89.4118 80 84.1445 80 77.6471V11.7647C80 5.26724 74.7328 0 68.2353 0Z"
          fill="#CACEAC"/>
</svg>
