<svg width="59" height="77" viewBox="0 0 59 77" fill="none" xmlns="http://www.w3.org/2000/svg">
<path d="M57.7519 18.9481L39.78 0.976185C39.3585 0.555015 38.7871 0.318284 38.1913 0.317947L6.73963 0.317947C3.0234 0.317947 0 3.34135 0 7.05758V70.2604C0 73.9766 3.0234 77 6.73963 77H51.6705C55.3868 77 58.4102 73.9766 58.4102 70.2604V20.5368C58.4102 19.9243 58.153 19.349 57.7519 18.9481ZM40.4378 7.9881L50.74 18.2903H42.6843C41.4456 18.2903 40.4378 17.2825 40.4378 16.0438V7.9881ZM51.6705 72.5069H6.73963C5.50089 72.5069 4.49309 71.4991 4.49309 70.2604V7.05758C4.49309 5.81884 5.50089 4.81104 6.73963 4.81104H35.9447V16.0438C35.9447 19.76 38.9681 22.7834 42.6843 22.7834H53.9171V70.2604C53.9171 71.4991 52.9093 72.5069 51.6705 72.5069Z" fill="#CACEAC"/>
<path d="M42.6844 32.0691H15.7258C14.4851 32.0691 13.4793 33.075 13.4793 34.3157C13.4793 35.5563 14.4851 36.5622 15.7258 36.5622H42.6844C43.925 36.5622 44.9309 35.5563 44.9309 34.3157C44.9309 33.075 43.925 32.0691 42.6844 32.0691ZM42.6844 41.0553H15.7258C14.4851 41.0553 13.4793 42.0611 13.4793 43.3018C13.4793 44.5425 14.4851 45.5484 15.7258 45.5484H42.6844C43.925 45.5484 44.9309 44.5425 44.9309 43.3018C44.9309 42.0611 43.925 41.0553 42.6844 41.0553ZM42.6844 50.0415H15.7258C14.4851 50.0415 13.4793 51.0473 13.4793 52.288C13.4793 53.5287 14.4851 54.5346 15.7258 54.5346H42.6844C43.925 54.5346 44.9309 53.5287 44.9309 52.288C44.9309 51.0473 43.925 50.0415 42.6844 50.0415ZM33.6982 59.0276H15.7258C14.4851 59.0276 13.4793 60.0335 13.4793 61.2742C13.4793 62.5149 14.4851 63.5207 15.7258 63.5207H33.6982C34.9389 63.5207 35.9447 62.5149 35.9447 61.2742C35.9447 60.0335 34.9389 59.0276 33.6982 59.0276Z" fill="#CACEAC"/>
</svg>
