<svg width="89" height="89" viewBox="0 0 89 89" fill="none" xmlns="http://www.w3.org/2000/svg">
    <path d="M86.1765 81H43.8235C43.0747 81 42.3565 80.6839 41.827 80.1213C41.2975 79.5587 41 78.7956 41 78C41 77.2044 41.2975 76.4413 41.827 75.8787C42.3565 75.3161 43.0747 75 43.8235 75H86.1765C86.9253 75 87.6435 75.3161 88.173 75.8787C88.7025 76.4413 89 77.2044 89 78C89 78.7956 88.7025 79.5587 88.173 80.1213C87.6435 80.6839 86.9253 81 86.1765 81Z"
          fill="#CACEAC"/>
    <path d="M86.1765 47H43.8235C43.0747 47 42.3565 46.7366 41.827 46.2678C41.2975 45.7989 41 45.163 41 44.5C41 43.837 41.2975 43.2011 41.827 42.7322C42.3565 42.2634 43.0747 42 43.8235 42H86.1765C86.9253 42 87.6435 42.2634 88.173 42.7322C88.7025 43.2011 89 43.837 89 44.5C89 45.163 88.7025 45.7989 88.173 46.2678C87.6435 46.7366 86.9253 47 86.1765 47Z"
          fill="#CACEAC"/>
    <path d="M86.1765 14H43.8235C43.0747 14 42.3565 13.6839 41.827 13.1213C41.2975 12.5587 41 11.7956 41 11C41 10.2044 41.2975 9.44129 41.827 8.87868C42.3565 8.31607 43.0747 8 43.8235 8H86.1765C86.9253 8 87.6435 8.31607 88.173 8.87868C88.7025 9.44129 89 10.2044 89 11C89 11.7956 88.7025 12.5587 88.173 13.1213C87.6435 13.6839 86.9253 14 86.1765 14Z"
          fill="#CACEAC"/>
    <path d="M12.028 22.3037C11.1191 22.306 10.2415 21.9721 9.56394 21.3663L1.24173 13.9556C0.50764 13.3021 0.0632197 12.3837 0.00623889 11.4025C-0.0507419 10.4214 0.284384 9.45772 0.937892 8.72363C1.5914 7.98954 2.50976 7.54512 3.49094 7.48814C4.47212 7.43116 5.43575 7.76628 6.16984 8.41979L11.7983 13.4294L23.2367 1.24253C23.5656 0.872803 23.9652 0.572701 24.412 0.359941C24.8588 0.147182 25.3437 0.0260753 25.8381 0.00376706C26.3324 -0.0185412 26.8262 0.0584017 27.2904 0.230055C27.7545 0.401709 28.1796 0.664595 28.5404 1.0032C28.9013 1.3418 29.1907 1.74927 29.3916 2.20154C29.5924 2.65382 29.7006 3.14174 29.7098 3.63651C29.719 4.13129 29.629 4.6229 29.4451 5.08232C29.2612 5.54174 28.9871 5.95967 28.6391 6.31145L14.7292 21.1328C14.3837 21.5033 13.9655 21.7985 13.5007 21.9999C13.0359 22.2014 12.5346 22.3048 12.028 22.3037V22.3037Z"
          fill="#CACEAC"/>
    <path d="M12.028 55.6518C11.1191 55.6541 10.2415 55.3202 9.56394 54.7144L1.24173 47.3037C0.50764 46.6502 0.0632197 45.7318 0.00623889 44.7507C-0.0507419 43.7695 0.284384 42.8058 0.937892 42.0717C1.5914 41.3377 2.50976 40.8932 3.49094 40.8363C4.47212 40.7793 5.43575 41.1144 6.16984 41.7679L11.7983 46.7775L23.2367 34.5906C23.5656 34.2209 23.9652 33.9208 24.412 33.7081C24.8588 33.4953 25.3437 33.3742 25.8381 33.3519C26.3324 33.3296 26.8262 33.4065 27.2904 33.5782C27.7545 33.7498 28.1796 34.0127 28.5404 34.3513C28.9013 34.6899 29.1907 35.0974 29.3916 35.5497C29.5924 36.0019 29.7006 36.4899 29.7098 36.9846C29.719 37.4794 29.629 37.971 29.4451 38.4304C29.2612 38.8899 28.9871 39.3078 28.6391 39.6596L14.7292 54.481C14.3837 54.8514 13.9655 55.1466 13.5007 55.348C13.0359 55.5495 12.5346 55.6529 12.028 55.6518V55.6518Z"
          fill="#CACEAC"/>
    <path d="M12.028 89C11.1191 89.0022 10.2415 88.6683 9.56394 88.0625L1.24173 80.6518C0.507639 79.9983 0.0632197 79.08 0.00623889 78.0988C-0.0507419 77.1176 0.284384 76.154 0.937892 75.4199C1.5914 74.6858 2.50976 74.2414 3.49094 74.1844C4.47212 74.1274 5.43575 74.4625 6.16984 75.116L11.7983 80.1257L23.2367 67.9388C23.9159 67.2523 24.8363 66.8581 25.8018 66.8402C26.7674 66.8222 27.7018 67.182 28.406 67.8427C29.1102 68.5035 29.5287 69.4131 29.5722 70.3779C29.6158 71.3426 29.2809 72.2862 28.6391 73.0077L14.7292 87.8291C14.3837 88.1995 13.9655 88.4947 13.5007 88.6962C13.0359 88.8976 12.5346 89.0011 12.028 89V89Z"
          fill="#CACEAC"/>
</svg>
