<svg width="89" height="89" viewBox="0 0 89 89" fill="none" xmlns="http://www.w3.org/2000/svg">
    <circle cx="44.1323" cy="44.8678" r="14.7107" fill="#407061"/>
    <path d="M22.8449 47.8099H1.42781C1.04913 47.8099 0.685961 47.5 0.418195 46.9482C0.15043 46.3964 0 45.6481 0 44.8678C0 44.0875 0.15043 43.3391 0.418195 42.7874C0.685961 42.2356 1.04913 41.9256 1.42781 41.9256H22.8449C23.2236 41.9256 23.5868 42.2356 23.8545 42.7874C24.1223 43.3391 24.2727 44.0875 24.2727 44.8678C24.2727 45.6481 24.1223 46.3964 23.8545 46.9482C23.5868 47.5 23.2236 47.8099 22.8449 47.8099Z"
          fill="#407061"/>
    <path d="M86.8366 47.8099H65.4195C65.0408 47.8099 64.6777 47.5 64.4099 46.9482C64.1421 46.3964 63.9917 45.6481 63.9917 44.8678C63.9917 44.0875 64.1421 43.3391 64.4099 42.7874C64.6777 42.2356 65.0408 41.9256 65.4195 41.9256H86.8366C87.2153 41.9256 87.5785 42.2356 87.8462 42.7874C88.114 43.3391 88.2644 44.0875 88.2644 44.8678C88.2644 45.6481 88.114 46.3964 87.8462 46.9482C87.5785 47.5 87.2153 47.8099 86.8366 47.8099Z"
          fill="#407061"/>
    <path d="M47.0744 1.42781V22.8449C47.0744 23.2236 46.7644 23.5868 46.2126 23.8545C45.6609 24.1223 44.9125 24.2727 44.1322 24.2727C43.3519 24.2727 42.6036 24.1223 42.0518 23.8545C41.5 23.5868 41.1901 23.2236 41.1901 22.8449V1.42781C41.1901 1.04914 41.5 0.685966 42.0518 0.418201C42.6036 0.150434 43.3519 7.62939e-06 44.1322 7.62939e-06C44.9125 7.62939e-06 45.6609 0.150434 46.2126 0.418201C46.7644 0.685966 47.0744 1.04914 47.0744 1.42781Z"
          fill="#407061"/>
    <path d="M47.0744 66.1551V87.5722C47.0744 87.9509 46.7644 88.314 46.2126 88.5818C45.6609 88.8496 44.9125 89 44.1322 89C43.3519 89 42.6036 88.8496 42.0518 88.5818C41.5 88.314 41.1901 87.9509 41.1901 87.5722V66.1551C41.1901 65.7764 41.5 65.4132 42.0518 65.1455C42.6036 64.8777 43.3519 64.7273 44.1322 64.7273C44.9125 64.7273 45.6609 64.8777 46.2126 65.1455C46.7644 65.4132 47.0744 65.7764 47.0744 66.1551Z"
          fill="#407061"/>
    <path d="M43.7667 11.7686C25.6908 11.7686 11.0331 26.421 11.0331 44.5C11.0331 62.5791 25.6908 77.2314 43.7667 77.2314C61.8447 77.2314 76.4959 62.5791 76.4959 44.5C76.4959 26.421 61.8447 11.7686 43.7667 11.7686ZM43.7667 71.7635C28.7081 71.7635 16.4992 59.5554 16.4992 44.5C16.4992 29.4381 28.7081 17.2322 43.7667 17.2322C58.8274 17.2322 71.0298 29.4381 71.0298 44.5C71.0298 59.5554 58.8274 71.7635 43.7667 71.7635Z"
          fill="#407061"/>
</svg>
