<svg width="89" height="89" viewBox="0 0 89 89" fill="none" xmlns="http://www.w3.org/2000/svg">
    <g clip-path="url(#clip0_8_2)">
        <path d="M47.9658 55.3025C61.0453 53.1068 70.4585 38.8466 70.4585 25.9584C70.4583 11.6447 58.8137 0 44.5 0C30.1863 0 18.5417 11.6447 18.5417 25.9583C18.5417 38.8464 27.9549 53.1068 41.0344 55.3024L37.4546 60.0757C37.0327 60.637 36.9656 61.3884 37.279 62.0168C37.5942 62.6452 38.2351 63.0417 38.9377 63.0417H42.5073C42.2535 64.6182 41.6786 65.6326 41.0363 66.7573C40.053 68.4792 38.9375 70.4294 38.9375 74.1667C38.9375 77.904 40.053 79.8542 41.0361 81.5761C41.8999 83.0881 42.6458 84.3936 42.6458 87.146C42.6458 88.1708 43.4751 89.0002 44.5 89.0002C45.5249 89.0002 46.3542 88.1708 46.3542 87.146C46.3542 83.4086 45.2388 81.4585 44.2556 79.7365C43.3919 78.2246 42.646 76.9191 42.646 74.1667C42.646 71.4143 43.392 70.1089 44.2556 68.5969C45.0559 67.1952 45.9106 65.5869 46.2133 63.0417H50.0625C50.7651 63.0417 51.406 62.6452 51.7212 62.0168C52.0344 61.3884 51.9675 60.637 51.5456 60.0757L47.9658 55.3025ZM37.909 12.6695C33.3623 14.9365 30.3148 19.2859 29.759 24.3086C29.6541 25.2574 28.8501 25.9583 27.9175 25.9583C27.8506 25.9583 27.7798 25.9546 27.711 25.9473C26.6934 25.8333 25.96 24.917 26.0723 23.8995C26.7694 17.6199 30.5755 12.1805 36.254 9.35213C37.1792 8.89409 38.2838 9.26886 38.742 10.1832C39.1983 11.0996 38.8252 12.2132 37.909 12.6695Z"
              fill="#407061"/>
        <path d="M89 37.0833C89 29.0999 83.8631 22.0471 76.2164 19.5357C75.6026 19.3365 74.9326 19.4632 74.4419 19.8797C73.9495 20.2962 73.7085 20.9353 73.8028 21.5709C74.0508 23.2313 74.1668 24.6255 74.1668 25.9583C74.1668 35.9172 69.0515 46.5533 61.1369 53.0574C60.7006 53.416 60.4507 53.9556 60.4597 54.5205C60.4687 55.0872 60.7368 55.6179 61.1858 55.9619C63.209 57.5128 65.3982 58.5177 67.6265 58.9966L66.9456 60.3582C66.6577 60.9321 66.6885 61.6148 67.0271 62.1616C67.3657 62.7085 67.9614 63.0417 68.6043 63.0417H68.8022C69.1887 64.8584 70.0927 66.0164 70.864 66.9819C71.7368 68.072 72.3125 68.7907 72.3125 70.4585C72.3125 72.1262 71.7366 72.8449 70.864 73.935C69.8572 75.1953 68.6043 76.7615 68.6043 79.7292C68.6043 80.7541 69.4336 81.5835 70.4585 81.5835C71.4834 81.5835 72.3127 80.7541 72.3127 79.7292C72.3127 78.0615 72.8886 77.3427 73.7612 76.2527C74.768 74.9924 76.021 73.4262 76.021 70.4585C76.021 67.4907 74.768 65.9245 73.7612 64.6642C73.2773 64.0598 72.8997 63.5563 72.6458 62.9552C73.15 62.858 73.6136 62.6077 73.8897 62.1618C74.2283 61.6149 74.2591 60.9323 73.9712 60.3583L73.2877 58.9912C82.2027 57.0328 89 46.2148 89 37.0833Z"
              fill="#407061"/>
        <path d="M29.7898 54.4951C20.8449 48.2481 14.8333 36.7791 14.8333 25.9583C14.8333 22.1848 15.5576 18.4727 16.9844 14.9238C17.2578 14.2449 17.1057 13.468 16.5969 12.9429C16.0828 12.4141 15.3077 12.2366 14.6287 12.4902C5.87939 15.6862 0 24.0788 0 33.375C0 44.4458 8.27335 57.146 19.3864 59.0602L18.7373 60.3582C18.4494 60.9321 18.4802 61.6148 18.8188 62.1616C19.1171 62.6433 19.6271 62.9169 20.1808 62.9856C19.9184 64.0689 19.4369 64.8459 18.8532 65.7216C17.888 67.1682 16.6875 68.97 16.6875 72.3125C16.6875 75.655 17.888 77.4568 18.8531 78.9035C19.7149 80.1965 20.3958 81.2177 20.3958 83.4375C20.3958 84.4624 21.2251 85.2917 22.25 85.2917C23.2749 85.2917 24.1042 84.4624 24.1042 83.4375C24.1042 80.095 22.9038 78.2932 21.9387 76.8465C21.0768 75.5535 20.3959 74.5323 20.3959 72.3125C20.3959 70.0925 21.0768 69.0713 21.9387 67.7785C22.7037 66.6316 23.5907 65.2253 23.9363 63.0417H24.1042C24.747 63.0417 25.3428 62.7085 25.6814 62.1616C26.02 61.6148 26.0508 60.9321 25.7629 60.3582L25.0907 59.0134C26.5672 58.7539 28.04 58.363 29.4931 57.7054C30.1015 57.4302 30.5143 56.8507 30.5758 56.1861C30.6372 55.5237 30.3367 54.8772 29.7898 54.4951Z"
              fill="#407061"/>
        <circle cx="9.5" cy="8.5" r="3.5" fill="#407061"/>
        <circle cx="78.5" cy="12.5" r="3.5" fill="#407061"/>
        <circle cx="82.5" cy="73.5" r="2.5" fill="#407061"/>
        <circle cx="23" cy="3" r="2" fill="#407061"/>
        <path d="M11.449 61.8607L10.6453 64.1578L12.0822 66.1228C12.145 66.2087 12.1536 66.3229 12.1044 66.4173C12.0766 66.4708 12.0327 66.5127 11.9809 66.5384C11.9411 66.5583 11.8963 66.5687 11.8501 66.5676L9.41632 66.5129L7.99163 68.4864C7.92965 68.5729 7.82358 68.6166 7.7184 68.5986C7.61334 68.5808 7.52754 68.5051 7.49685 68.4032L6.79682 66.0717L4.47985 65.3272C4.37857 65.2944 4.30419 65.2071 4.28877 65.1019C4.27335 64.9968 4.31874 64.8914 4.40632 64.8307L6.40706 63.4449L6.39939 61.0109C6.39871 60.7978 6.67926 60.6583 6.84877 60.7874L8.78524 62.2621L11.0975 61.5026C11.1988 61.4694 11.31 61.4965 11.3847 61.5725C11.4594 61.6484 11.4839 61.76 11.449 61.8607V61.8607Z"
              fill="#407061"/>
        <path d="M74.6221 2.64191L73.8018 4.98603L75.2682 6.99122C75.3323 7.07894 75.3411 7.1954 75.2909 7.29182C75.2625 7.34641 75.2177 7.38909 75.1648 7.4154C75.1242 7.43562 75.0785 7.44625 75.0313 7.44513L72.5477 7.38938L71.0939 9.40328C71.0306 9.4915 70.9224 9.53609 70.815 9.51773C70.7078 9.49964 70.6203 9.42233 70.5889 9.31834L69.8746 6.93909L67.5102 6.17932C67.4068 6.14591 67.3309 6.05675 67.3152 5.94947C67.2994 5.84219 67.3457 5.73465 67.4351 5.67266L69.4768 4.25855L69.469 1.77467C69.4683 1.55724 69.7546 1.41483 69.9276 1.54658L71.9037 3.05144L74.2633 2.27638C74.3667 2.24251 74.4802 2.27019 74.5564 2.34773C74.6326 2.42526 74.6577 2.53907 74.6221 2.64191V2.64191Z"
              fill="#407061"/>
    </g>
    <defs>
        <clipPath id="clip0_8_2">
            <rect width="89" height="89" fill="white"/>
        </clipPath>
    </defs>
</svg>
