<svg width="89" height="89" viewBox="0 0 89 89" fill="none" xmlns="http://www.w3.org/2000/svg">
    <path d="M44.5 0C20.058 0 0 20.058 0 44.5C0 68.942 20.058 89 44.5 89C45.9412 89 47.1074 87.8338 47.1074 86.3926C47.1074 84.9514 45.9412 83.7852 44.5 83.7852C22.9328 83.7852 5.21484 66.0672 5.21484 44.5C5.21484 22.9328 22.9328 5.21484 44.5 5.21484C66.0672 5.21484 83.7852 22.9328 83.7852 44.5C83.7852 45.9412 84.9514 47.1074 86.3926 47.1074C87.8338 47.1074 89 45.9412 89 44.5C89 20.058 68.942 0 44.5 0Z"
          fill="#407061"/>
    <path d="M44.5 21.0331C55.9558 21.0331 65.5961 29.8078 66.4467 41.0115C66.5562 42.4451 67.7554 43.535 69.2451 43.4126C70.6787 43.3031 71.7557 42.0503 71.6462 40.6141C70.5921 26.7114 58.6677 15.8182 44.5 15.8182C28.6849 15.8182 15.8184 28.6848 15.8184 44.4999C15.8184 58.6676 26.7115 70.592 40.6142 71.6461C40.6831 71.6511 40.7491 71.6537 40.8154 71.6537C42.165 71.6537 43.3082 70.6123 43.4125 69.245C43.5219 67.8088 42.445 66.5561 41.0114 66.4466C29.8079 65.596 21.0332 55.9557 21.0332 44.4999C21.0332 31.5596 31.5597 21.0331 44.5 21.0331Z"
          fill="#407061"/>
    <path d="M50.0254 38.9718C51.0439 39.9903 52.6965 39.9878 53.7151 38.9744C54.7336 37.9559 54.7336 36.3058 53.7177 35.2847C51.2553 32.82 47.9807 31.4628 44.4999 31.4628C37.3116 31.4628 31.4628 37.3116 31.4628 44.4999C31.4628 47.9806 32.8201 51.2552 35.2848 53.7175C36.3059 54.7335 37.9569 54.7324 38.9745 53.7149C39.9905 52.6938 39.9905 51.0438 38.9719 50.0252C37.4926 48.5485 36.6777 46.5879 36.6777 44.4999C36.6777 40.1865 40.1866 36.6776 44.4999 36.6776C46.588 36.6776 48.5486 37.4925 50.0254 38.9718Z"
          fill="#407061"/>
    <path d="M72.9194 65.5451L77.3119 61.1526C77.9331 60.5314 78.198 59.6426 78.0223 58.782C77.8441 57.9238 77.2482 57.2109 76.4333 56.8876L49.5877 46.2008C48.6252 45.8163 47.52 46.0377 46.7791 46.7788C46.0433 47.5146 45.814 48.6198 46.2012 49.5873L56.8879 76.433C57.2113 77.2479 57.9243 77.8436 58.7823 78.0219C59.6328 78.1874 60.5291 77.9303 61.153 77.3115L65.5454 72.9191L80.8621 88.2357C81.8806 89.2542 83.5307 89.2542 84.5492 88.2357L88.2363 84.5487C89.2547 83.5302 89.2547 81.8801 88.2363 80.8616L72.9194 65.5451Z"
          fill="#407061"/>
</svg>
