<svg width="89" height="89" viewBox="0 0 89 89" fill="none" xmlns="http://www.w3.org/2000/svg">
    <path d="M66.1655 42H23.8451C22.8319 42 22 42.0856 22 42.1964V46.8025C22 46.911 22.8266 47 23.8451 47H66.1655C67.1788 47 68 46.9116 68 46.8025V42.1964C67.9947 42.0861 67.1788 42 66.1655 42Z"
          fill="#407061"/>
    <path d="M44.503 0C19.9278 0 0 19.9206 0 44.5C0 69.0794 19.9278 89 44.503 89C69.081 89 89 69.0794 89 44.5C89 19.9206 69.081 0 44.503 0ZM44.503 81.5661C24.0301 81.5661 7.43148 64.9685 7.43148 44.5C7.43148 24.0226 24.0301 7.42802 44.503 7.42802C64.9788 7.42802 81.5685 24.0226 81.5685 44.5C81.5685 64.9685 64.9788 81.5661 44.503 81.5661Z"
          fill="#407061"/>
</svg>
