<svg width="101" height="89" viewBox="0 0 101 89" fill="none" xmlns="http://www.w3.org/2000/svg">
    <path d="M99.5224 24.1566C97.9887 23.1112 95.8995 23.5062 94.8541 25.0391L88.002 35.0858C86.2219 26.7923 82.0987 19.1716 75.9633 13.0367C67.5565 4.62985 56.3792 0 44.4897 0C32.6006 0 21.4229 4.62985 13.0161 13.0367C-4.33869 30.3914 -4.33869 58.6296 13.0161 75.9839C21.6934 84.6613 33.0916 89 44.4897 89C55.8878 89 67.286 84.6613 75.9633 75.9839C77.2753 74.6719 77.2753 72.5447 75.9633 71.2327C74.6513 69.9207 72.5241 69.9207 71.2125 71.2327C56.4773 85.9675 32.5025 85.9675 17.7677 71.2327C3.03296 56.4979 3.03296 32.5222 17.7677 17.7875C24.9056 10.6501 34.3955 6.71901 44.4901 6.71901C54.5848 6.71901 64.0752 10.6501 71.2125 17.7879C76.7217 23.2966 80.3123 30.2185 81.6673 37.7331L69.742 29.5995C68.2091 28.554 66.1191 28.9491 65.0736 30.4819C64.0281 32.0147 64.4232 34.1048 65.956 35.1503L83.7453 47.2835C83.7462 47.2839 83.7471 47.2848 83.748 47.2857C84.0293 47.4774 84.3294 47.6185 84.638 47.7148C84.6474 47.718 84.6564 47.7229 84.6658 47.7256C84.7182 47.7417 84.7715 47.748 84.8244 47.7614C85.0931 47.8286 85.3655 47.8698 85.6378 47.8698C86.7111 47.8698 87.7659 47.3565 88.4163 46.4033L100.405 28.8254C101.45 27.2922 101.055 25.2021 99.5224 24.1566Z"
          fill="#CACEAC"/>
    <path d="M27.6506 54V50.8977L34.8991 44.1861C35.5156 43.5895 36.0327 43.0526 36.4503 42.5753C36.8745 42.098 37.196 41.6307 37.4148 41.1733C37.6335 40.7093 37.7429 40.2088 37.7429 39.6719C37.7429 39.0753 37.607 38.5616 37.3352 38.1307C37.0634 37.6932 36.6922 37.3584 36.2216 37.1264C35.7509 36.8878 35.2173 36.7685 34.6207 36.7685C33.9976 36.7685 33.4541 36.8944 32.9901 37.1463C32.526 37.3982 32.1681 37.7595 31.9162 38.2301C31.6643 38.7008 31.5384 39.2609 31.5384 39.9105H27.4517C27.4517 38.5781 27.7533 37.4214 28.3565 36.4403C28.9598 35.4593 29.8049 34.7003 30.892 34.1634C31.9792 33.6264 33.232 33.358 34.6506 33.358C36.1089 33.358 37.3783 33.6165 38.4588 34.1335C39.5459 34.6439 40.3911 35.3532 40.9943 36.2614C41.5975 37.1695 41.8991 38.2102 41.8991 39.3835C41.8991 40.1525 41.7467 40.9115 41.4418 41.6605C41.1435 42.4096 40.6098 43.2415 39.8409 44.1562C39.072 45.0644 37.9882 46.1548 36.5895 47.4276L33.6165 50.3409V50.4801H42.1676V54H27.6506ZM52.7248 54.2784C51.3195 54.2784 50.0666 54.0199 48.9663 53.5028C47.8725 52.9858 47.0041 52.2732 46.3612 51.3651C45.7182 50.4569 45.3834 49.4162 45.3569 48.2429H49.533C49.5794 49.0317 49.9109 49.6714 50.5273 50.1619C51.1438 50.6525 51.8763 50.8977 52.7248 50.8977C53.4009 50.8977 53.9975 50.7486 54.5146 50.4503C55.0382 50.1454 55.4459 49.7244 55.7376 49.1875C56.0359 48.6439 56.185 48.0208 56.185 47.3182C56.185 46.6023 56.0326 45.9725 55.7276 45.429C55.4293 44.8854 55.015 44.4612 54.4847 44.1562C53.9544 43.8513 53.3479 43.6955 52.6651 43.6889C52.0685 43.6889 51.4885 43.8116 50.9251 44.0568C50.3683 44.3021 49.9341 44.6368 49.6225 45.0611L45.7944 44.375L46.7589 33.6364H59.2077V37.1562H50.3086L49.7816 42.2571H49.9009C50.2589 41.7533 50.7991 41.3357 51.5217 41.0043C52.2442 40.6728 53.0529 40.5071 53.9478 40.5071C55.1741 40.5071 56.2679 40.7955 57.229 41.3722C58.1902 41.9489 58.9492 42.741 59.506 43.7486C60.0629 44.7495 60.338 45.9029 60.3313 47.2088C60.338 48.581 60.0198 49.8007 59.3768 50.8679C58.7404 51.9285 57.8488 52.7637 56.7021 53.3736C55.5619 53.9768 54.2362 54.2784 52.7248 54.2784Z"
          fill="#CACEAC"/>
</svg>
