<svg width="135" height="135" viewBox="0 0 135 135" fill="none" xmlns="http://www.w3.org/2000/svg">
<path fill-rule="evenodd" clip-rule="evenodd" d="M9.4186 98.8953C9.4186 113.634 21.3664 125.581 36.1047 125.581H98.8953C113.634 125.581 125.581 113.634 125.581 98.8953V36.1047C125.581 21.3664 113.634 9.4186 98.8953 9.4186H36.1047C21.3662 9.4186 9.4186 21.3657 9.4186 36.1039V54.9419C9.4186 57.5427 7.31016 59.6512 4.7093 59.6512C2.10845 59.6512 0 57.5427 0 54.9419V36.1039C0 16.1637 16.1648 0 36.1047 0H98.8953C118.835 0 135 16.1646 135 36.1047V98.8953C135 118.835 118.835 135 98.8953 135H36.1047C16.1646 135 0 118.835 0 98.8953V80.0581C0 77.4574 2.10845 75.3488 4.7093 75.3488C7.31016 75.3488 9.4186 77.4574 9.4186 80.0581V98.8953Z" fill="#225C4A"/>
<rect x="6" y="65" width="103" height="51" fill="#225C4A"/>
<rect x="24" y="71" width="103" height="51" fill="#225C4A"/>
<rect x="24" y="20" width="103" height="51" fill="#225C4A"/>
<rect x="18" y="9" width="103" height="51" fill="#225C4A"/>
<rect x="8" y="16" width="103" height="51" fill="#225C4A"/>
<rect y="50" width="103" height="51" fill="#225C4A"/>
<rect x="13" y="75" width="103" height="51" fill="#225C4A"/>
<path fill-rule="evenodd" clip-rule="evenodd" d="M66.7093 37C69.3101 37 71.4186 39.1084 71.4186 41.7093V70.75L94.6512 88.1744C96.7321 89.7348 97.1534 92.6866 95.593 94.7674C94.0327 96.8483 91.0809 97.2696 89 95.7093L65.1395 77.8139C63.1629 76.3315 62 74.0051 62 71.5349V41.7093C62 39.1084 64.1085 37 66.7093 37ZM70.7926 70.2803C70.792 70.2797 70.7913 70.2797 70.7907 70.2791L69.8488 71.5349L70.7907 70.2791L70.7926 70.2803Z" fill="#CACEAC"/>
</svg>
